<?xml version="1.0" encoding="UTF-8" standalone="no"?>
<!DOCTYPE svg PUBLIC "-//W3C//DTD SVG 1.1//EN" "http://www.w3.org/Graphics/SVG/1.1/DTD/svg11.dtd">
<svg width="100%" height="100%" viewBox="0 0 448 54" version="1.1" xmlns="http://www.w3.org/2000/svg" xmlns:xlink="http://www.w3.org/1999/xlink" xml:space="preserve" xmlns:serif="http://www.serif.com/" style="fill-rule:evenodd;clip-rule:evenodd;stroke-linejoin:round;stroke-miterlimit:2;">
    <g transform="matrix(1,0,0,1,-2335.492539,-1339.431989)">
        <g transform="matrix(1.461629,-0,0,1.461629,-1224.491828,-1191.526765)">
            <path d="M2503.115,1767.601L2503.115,1736.287L2492.701,1736.287L2492.701,1732.601L2518.015,1732.601L2518.015,1736.287L2507.615,1736.287L2507.615,1767.601L2503.115,1767.601Z" style="fill-rule:nonzero;"/>
            <path d="M2521.851,1767.601L2521.851,1731.601L2526.351,1731.601L2526.351,1746.987C2527.199,1745.497 2528.378,1744.326 2529.89,1743.476C2531.402,1742.626 2533.063,1742.201 2534.872,1742.201C2537.758,1742.201 2540.064,1743.104 2541.79,1744.908C2543.516,1746.713 2544.379,1749.47 2544.379,1753.18L2544.379,1767.601L2539.929,1767.601L2539.929,1753.651C2539.929,1751.118 2539.422,1749.22 2538.408,1747.958C2537.393,1746.697 2535.86,1746.066 2533.808,1746.066C2531.704,1746.066 2529.935,1746.818 2528.501,1748.323C2527.068,1749.828 2526.351,1751.975 2526.351,1754.766L2526.351,1767.601L2521.851,1767.601Z" style="fill-rule:nonzero;"/>
            <path d="M2549.444,1767.601L2549.444,1742.801L2553.944,1742.801L2553.944,1746.694C2554.516,1745.413 2555.289,1744.414 2556.265,1743.698C2557.241,1742.981 2558.422,1742.623 2559.808,1742.623L2563.536,1742.623L2563.536,1746.787L2559.358,1746.787C2558.292,1746.787 2557.351,1747.086 2556.536,1747.683C2555.722,1748.281 2555.087,1749.241 2554.629,1750.562C2554.173,1751.884 2553.944,1753.623 2553.944,1755.78L2553.944,1767.601L2549.444,1767.601Z" style="fill-rule:nonzero;"/>
            <path d="M2575.901,1768.201C2573.501,1768.201 2571.377,1767.66 2569.529,1766.576C2567.682,1765.493 2566.232,1763.981 2565.179,1762.041C2564.127,1760.101 2563.601,1757.833 2563.601,1755.237C2563.601,1752.623 2564.119,1750.339 2565.154,1748.387C2566.19,1746.435 2567.644,1744.916 2569.515,1743.83C2571.387,1742.744 2573.539,1742.201 2575.972,1742.201C2578.392,1742.201 2580.48,1742.741 2582.236,1743.819C2583.994,1744.898 2585.346,1746.321 2586.293,1748.087C2587.241,1749.854 2587.715,1751.79 2587.715,1753.894L2587.715,1754.966C2587.715,1755.347 2587.694,1755.766 2587.651,1756.223L2566.958,1756.223L2566.958,1752.88L2583.258,1752.88C2583.158,1750.723 2582.415,1749.03 2581.029,1747.801C2579.644,1746.573 2577.927,1745.958 2575.879,1745.958C2574.484,1745.958 2573.186,1746.268 2571.986,1746.887C2570.786,1747.506 2569.822,1748.419 2569.093,1749.626C2568.365,1750.834 2568.001,1752.34 2568.001,1754.144L2568.001,1755.523C2568.001,1757.48 2568.373,1759.124 2569.115,1760.455C2569.858,1761.786 2570.83,1762.781 2572.033,1763.441C2573.235,1764.101 2574.52,1764.43 2575.886,1764.43C2577.553,1764.43 2578.953,1764.047 2580.086,1763.28C2581.22,1762.514 2582.039,1761.464 2582.544,1760.13L2587.015,1760.13C2586.596,1761.658 2585.882,1763.035 2584.872,1764.258C2583.863,1765.482 2582.603,1766.446 2581.093,1767.148C2579.584,1767.85 2577.853,1768.201 2575.901,1768.201Z" style="fill-rule:nonzero;"/>
            <path d="M2602.751,1768.201C2600.351,1768.201 2598.227,1767.66 2596.379,1766.576C2594.532,1765.493 2593.082,1763.981 2592.029,1762.041C2590.977,1760.101 2590.451,1757.833 2590.451,1755.237C2590.451,1752.623 2590.969,1750.339 2592.004,1748.387C2593.04,1746.435 2594.494,1744.916 2596.365,1743.83C2598.237,1742.744 2600.389,1742.201 2602.822,1742.201C2605.242,1742.201 2607.33,1742.741 2609.086,1743.819C2610.844,1744.898 2612.196,1746.321 2613.143,1748.087C2614.091,1749.854 2614.565,1751.79 2614.565,1753.894L2614.565,1754.966C2614.565,1755.347 2614.544,1755.766 2614.501,1756.223L2593.808,1756.223L2593.808,1752.88L2610.108,1752.88C2610.008,1750.723 2609.265,1749.03 2607.879,1747.801C2606.494,1746.573 2604.777,1745.958 2602.729,1745.958C2601.334,1745.958 2600.036,1746.268 2598.836,1746.887C2597.636,1747.506 2596.672,1748.419 2595.943,1749.626C2595.215,1750.834 2594.851,1752.34 2594.851,1754.144L2594.851,1755.523C2594.851,1757.48 2595.223,1759.124 2595.965,1760.455C2596.708,1761.786 2597.68,1762.781 2598.883,1763.441C2600.085,1764.101 2601.37,1764.43 2602.736,1764.43C2604.403,1764.43 2605.803,1764.047 2606.936,1763.28C2608.07,1762.514 2608.889,1761.464 2609.394,1760.13L2613.865,1760.13C2613.446,1761.658 2612.732,1763.035 2611.722,1764.258C2610.713,1765.482 2609.453,1766.446 2607.943,1767.148C2606.434,1767.85 2604.703,1768.201 2602.751,1768.201Z" style="fill-rule:nonzero;"/>
            <path d="M2619.172,1767.601L2619.172,1732.601L2623.672,1732.601L2623.672,1764.008L2639.865,1764.008L2639.865,1767.601L2619.172,1767.601Z" style="fill-rule:nonzero;"/>
            <path d="M2650.794,1768.201C2648.794,1768.201 2647.116,1767.856 2645.758,1767.166C2644.401,1766.476 2643.382,1765.558 2642.701,1764.412C2642.02,1763.267 2641.679,1762.047 2641.679,1760.751C2641.679,1758.066 2642.652,1756.008 2644.597,1754.58C2646.543,1753.152 2649.099,1752.437 2652.265,1752.437C2653.651,1752.437 2654.918,1752.543 2656.065,1752.755C2657.213,1752.967 2658.151,1753.197 2658.879,1753.444L2658.879,1752.351C2658.879,1750.218 2658.321,1748.612 2657.204,1747.533C2656.088,1746.455 2654.594,1745.916 2652.722,1745.916C2651.198,1745.916 2649.876,1746.229 2648.754,1746.855C2647.633,1747.481 2646.932,1748.554 2646.651,1750.073L2642.172,1750.073C2642.372,1748.282 2642.982,1746.806 2644.001,1745.644C2645.02,1744.482 2646.295,1743.618 2647.826,1743.051C2649.357,1742.485 2650.989,1742.201 2652.722,1742.201C2656.242,1742.201 2658.898,1743.124 2660.69,1744.969C2662.483,1746.815 2663.379,1749.275 2663.379,1752.351L2663.379,1759.787C2663.379,1761.006 2663.454,1761.894 2663.604,1762.451C2663.754,1763.009 2664.014,1763.353 2664.383,1763.484C2664.752,1763.615 2665.251,1763.68 2665.879,1763.68L2666.222,1763.68L2666.222,1767.601L2665.244,1767.601C2663.634,1767.601 2662.307,1767.335 2661.261,1766.801C2660.217,1766.268 2659.518,1765.197 2659.165,1763.587C2658.394,1764.887 2657.331,1765.981 2655.976,1766.869C2654.622,1767.757 2652.894,1768.201 2650.794,1768.201ZM2651.515,1764.544C2652.982,1764.544 2654.241,1764.175 2655.293,1763.437C2656.346,1762.699 2657.171,1761.735 2657.768,1760.544C2658.366,1759.354 2658.699,1758.089 2658.765,1756.751C2658.003,1756.527 2657.073,1756.318 2655.976,1756.123C2654.878,1755.928 2653.772,1755.83 2652.658,1755.83C2650.41,1755.83 2648.777,1756.273 2647.758,1757.159C2646.739,1758.045 2646.229,1759.161 2646.229,1760.508C2646.229,1761.666 2646.689,1762.628 2647.608,1763.394C2648.527,1764.161 2649.829,1764.544 2651.515,1764.544Z" style="fill-rule:nonzero;"/>
            <path d="M2669.644,1767.601L2669.644,1742.801L2674.144,1742.801L2674.144,1746.916C2674.968,1745.449 2676.113,1744.297 2677.579,1743.458C2679.046,1742.62 2680.701,1742.201 2682.544,1742.201C2685.487,1742.201 2687.827,1743.104 2689.565,1744.908C2691.303,1746.713 2692.172,1749.47 2692.172,1753.18L2692.172,1767.601L2687.672,1767.601L2687.672,1753.651C2687.672,1751.118 2687.145,1749.22 2686.09,1747.958C2685.036,1746.697 2683.482,1746.066 2681.429,1746.066C2679.334,1746.066 2677.596,1746.818 2676.215,1748.323C2674.835,1749.828 2674.144,1751.975 2674.144,1754.766L2674.144,1767.601L2669.644,1767.601Z" style="fill-rule:nonzero;"/>
            <path d="M2708.001,1768.201C2705.601,1768.201 2703.477,1767.66 2701.629,1766.576C2699.782,1765.493 2698.332,1763.981 2697.279,1762.041C2696.227,1760.101 2695.701,1757.833 2695.701,1755.237C2695.701,1752.623 2696.219,1750.339 2697.254,1748.387C2698.29,1746.435 2699.744,1744.916 2701.615,1743.83C2703.487,1742.744 2705.639,1742.201 2708.072,1742.201C2710.492,1742.201 2712.58,1742.741 2714.336,1743.819C2716.094,1744.898 2717.446,1746.321 2718.393,1748.087C2719.341,1749.854 2719.815,1751.79 2719.815,1753.894L2719.815,1754.966C2719.815,1755.347 2719.794,1755.766 2719.751,1756.223L2699.058,1756.223L2699.058,1752.88L2715.358,1752.88C2715.258,1750.723 2714.515,1749.03 2713.129,1747.801C2711.744,1746.573 2710.027,1745.958 2707.979,1745.958C2706.584,1745.958 2705.286,1746.268 2704.086,1746.887C2702.886,1747.506 2701.922,1748.419 2701.193,1749.626C2700.465,1750.834 2700.101,1752.34 2700.101,1754.144L2700.101,1755.523C2700.101,1757.48 2700.473,1759.124 2701.215,1760.455C2701.958,1761.786 2702.93,1762.781 2704.133,1763.441C2705.335,1764.101 2706.62,1764.43 2707.986,1764.43C2709.653,1764.43 2711.053,1764.047 2712.186,1763.28C2713.32,1762.514 2714.139,1761.464 2714.644,1760.13L2719.115,1760.13C2718.696,1761.658 2717.982,1763.035 2716.972,1764.258C2715.963,1765.482 2714.703,1766.446 2713.193,1767.148C2711.684,1767.85 2709.953,1768.201 2708.001,1768.201Z" style="fill-rule:nonzero;"/>
            <path d="M2732.115,1768.201C2729.091,1768.201 2726.56,1767.495 2724.522,1766.083C2722.484,1764.672 2721.296,1762.592 2720.958,1759.844L2725.608,1759.844C2725.866,1761.287 2726.581,1762.425 2727.754,1763.258C2728.928,1764.092 2730.43,1764.508 2732.258,1764.508C2733.982,1764.508 2735.316,1764.142 2736.258,1763.408C2737.201,1762.675 2737.672,1761.744 2737.672,1760.616C2737.672,1759.763 2737.382,1759.115 2736.801,1758.669C2736.22,1758.224 2735.148,1757.863 2733.586,1757.587C2732.953,1757.449 2732.276,1757.32 2731.554,1757.198C2730.833,1757.076 2730.151,1756.954 2729.508,1756.83C2728.37,1756.611 2727.244,1756.235 2726.129,1755.701C2725.015,1755.168 2724.095,1754.417 2723.368,1753.448C2722.642,1752.479 2722.279,1751.237 2722.279,1749.723C2722.279,1747.585 2723.095,1745.797 2724.726,1744.358C2726.357,1742.92 2728.587,1742.201 2731.415,1742.201C2734.158,1742.201 2736.423,1742.823 2738.211,1744.066C2740,1745.309 2741.023,1747.256 2741.279,1749.908L2736.815,1749.908C2736.691,1748.485 2736.122,1747.462 2735.108,1746.841C2734.093,1746.219 2732.844,1745.908 2731.358,1745.908C2729.925,1745.908 2728.755,1746.226 2727.847,1746.862C2726.94,1747.498 2726.486,1748.323 2726.486,1749.337C2726.486,1751.156 2727.829,1752.32 2730.515,1752.83C2730.911,1752.887 2731.336,1752.957 2731.79,1753.041C2732.245,1753.124 2732.704,1753.207 2733.168,1753.291C2733.633,1753.374 2734.056,1753.449 2734.436,1753.516C2735.222,1753.625 2736.049,1753.809 2736.915,1754.066C2737.782,1754.323 2738.602,1754.694 2739.376,1755.18C2740.149,1755.666 2740.777,1756.312 2741.258,1757.119C2741.739,1757.927 2741.979,1758.964 2741.979,1760.23C2741.979,1761.778 2741.58,1763.149 2740.783,1764.344C2739.985,1765.54 2738.849,1766.481 2737.376,1767.169C2735.902,1767.857 2734.149,1768.201 2732.115,1768.201Z" style="fill-rule:nonzero;"/>
        </g>
        <g transform="matrix(-6.511034,0,-0,-3.955392,18497.039044,8203.451279)">
            <rect x="2472.335" y="1733.315" width="7.859" height="1.673"/>
        </g>
        <g transform="matrix(-8.154152,0,-0,-3.955392,22559.376655,8248.02689)">
            <rect x="2472.335" y="1733.315" width="7.859" height="1.673"/>
        </g>
        <g transform="matrix(-4.004907,0,-0,-3.955392,12301.052875,8225.739085)">
            <rect x="2472.335" y="1733.315" width="7.859" height="1.673"/>
        </g>
    </g>
</svg>
